<?xml version="1.0" encoding="utf-8"?>
<svg viewBox="0 0 500 500" xmlns="http://www.w3.org/2000/svg">
  <defs/>
  <path d="M 0.755 6.322 L 491.651 6.322 L 491.651 490.571 L 0.755 490.571 L 0.755 6.322 Z" style="fill: rgba(174, 0, 0, 0);"/>
  <path d="M 249.271 39.049 L 251.827 39.049 L 253.362 41.605 L 262.055 41.605 L 263.077 42.628 L 267.168 44.162 L 271.258 46.208 L 271.77 47.741 L 273.305 47.741 L 274.327 49.787 L 277.906 52.856 L 278.418 57.457 L 279.441 60.525 L 282.509 61.037 L 283.02 63.594 L 282.509 66.662 L 281.998 67.685 L 281.998 79.958 L 281.487 80.98 L 281.487 86.604 L 281.998 89.672 L 280.463 91.718 L 279.441 91.718 L 278.929 105.525 L 277.906 115.24 L 277.396 124.955 L 276.372 124.955 L 276.372 129.558 L 274.838 136.718 L 274.327 142.853 L 273.305 145.921 L 273.305 150.012 L 275.35 147.966 L 276.372 141.83 L 278.929 136.718 L 279.953 135.694 L 281.487 131.603 L 282.509 129.558 L 283.532 124.955 L 284.554 122.911 L 284.554 118.308 L 285.577 116.774 L 287.11 116.774 L 288.644 111.149 L 291.201 108.592 L 290.691 104.501 L 291.713 103.99 L 292.736 99.899 L 294.27 98.365 L 295.292 98.365 L 295.804 93.763 L 296.827 93.763 L 296.316 95.809 L 297.339 95.809 L 297.339 92.741 L 297.849 90.184 L 298.361 88.65 L 299.383 88.65 L 299.383 87.627 L 300.406 87.627 L 300.917 85.07 L 304.497 79.446 L 305.52 75.866 L 307.054 75.866 L 309.099 67.685 L 310.122 67.173 L 316.258 66.662 L 316.258 64.617 L 319.326 63.594 L 323.928 61.548 L 328.018 61.037 L 336.201 62.06 L 337.223 63.082 L 339.78 64.105 L 341.825 65.639 L 346.939 66.662 L 347.961 66.662 L 350.007 71.263 L 352.052 72.286 L 351.542 73.309 L 352.564 73.309 L 353.076 75.355 L 354.097 75.866 L 355.632 85.581 L 358.189 85.581 L 358.189 87.115 L 355.12 86.604 L 355.12 92.23 L 354.609 95.809 L 353.587 96.831 L 352.052 101.434 L 351.03 101.944 L 350.007 106.547 L 346.939 109.104 L 345.404 112.172 L 344.382 113.194 L 342.848 116.774 L 340.291 119.33 L 338.758 124.444 L 338.758 125.978 L 335.69 127.512 L 334.156 132.115 L 333.644 133.137 L 331.599 134.161 L 330.575 137.228 L 329.041 136.718 L 327.508 140.296 L 324.44 141.83 L 321.883 148.478 L 319.326 148.99 L 319.326 150.012 L 318.303 150.523 L 316.77 153.08 L 315.746 153.08 L 315.235 156.148 L 313.189 158.194 L 313.701 161.262 L 312.167 162.795 L 309.099 162.285 L 308.077 164.33 L 306.542 165.864 L 306.542 169.442 L 307.565 169.954 L 307.565 170.977 L 306.031 172 L 305.008 174.045 L 303.985 174.045 L 303.474 172 L 300.917 173.023 L 299.383 175.58 L 299.383 176.602 L 294.782 178.136 L 294.27 180.692 L 289.668 184.273 L 288.134 186.829 L 286.088 186.829 L 285.577 188.875 L 282.509 191.431 L 277.906 190.921 L 276.372 189.897 L 276.884 186.318 L 278.418 184.783 L 279.441 181.204 L 280.975 180.692 L 281.998 178.648 L 284.554 174.045 L 286.088 172 L 287.11 172 L 288.134 168.42 L 289.156 166.375 L 292.225 161.262 L 292.736 159.728 L 290.179 159.216 L 288.644 157.682 L 286.599 157.682 L 286.599 159.216 L 288.134 159.216 L 288.644 162.795 L 287.622 163.307 L 287.622 162.285 L 285.065 162.285 L 285.065 165.864 L 286.599 167.909 L 286.088 168.932 L 285.065 168.42 L 285.065 169.442 L 283.532 170.466 L 281.998 173.023 L 279.953 173.534 L 278.929 173.023 L 278.929 174.045 L 280.975 174.557 L 280.463 176.091 L 281.487 177.114 L 277.906 178.136 L 277.906 179.159 L 275.35 181.715 L 274.327 184.783 L 272.793 184.783 L 272.793 190.409 L 275.35 191.943 L 278.929 193.476 L 278.929 195.011 L 281.487 195.521 L 283.02 198.078 L 285.065 200.124 L 287.11 201.659 L 288.134 206.261 L 290.179 209.328 L 290.691 212.907 L 293.247 215.464 L 295.292 216.488 L 298.361 214.442 L 305.008 213.931 L 303.985 211.885 L 302.963 210.862 L 302.963 209.328 L 298.872 209.84 L 299.894 210.862 L 298.872 211.373 L 294.782 211.373 L 294.27 208.816 L 293.247 206.772 L 295.292 204.726 L 295.292 203.193 L 299.894 201.659 L 301.429 197.568 L 304.497 196.544 L 304.497 199.102 L 306.031 199.102 L 310.122 197.056 L 311.656 197.056 L 312.167 195.521 L 313.701 195.521 L 313.701 194.499 L 316.258 192.966 L 318.815 192.966 L 319.837 190.921 L 321.372 190.409 L 323.928 190.409 L 324.44 188.363 L 330.065 186.318 L 331.599 183.761 L 335.178 182.227 L 337.735 181.715 L 340.291 179.159 L 341.313 179.159 L 341.313 178.136 L 342.848 177.114 L 344.382 177.114 L 344.894 176.091 L 347.451 175.068 L 352.564 172.511 L 353.076 170.466 L 350.519 170.977 L 346.939 173.023 L 341.825 174.557 L 340.803 176.091 L 339.78 176.091 L 340.291 177.625 L 338.247 178.648 L 336.201 178.648 L 335.69 177.625 L 332.621 177.625 L 331.087 180.692 L 330.065 180.692 L 330.065 182.227 L 325.973 182.738 L 323.928 183.249 L 323.418 184.783 L 319.837 184.783 L 319.837 185.806 L 317.792 186.318 L 317.792 185.295 L 315.746 186.318 L 315.746 187.852 L 311.656 188.875 L 311.656 189.897 L 313.189 190.921 L 312.678 192.454 L 310.122 193.476 L 309.099 195.521 L 307.054 196.033 L 306.031 195.521 L 306.542 192.454 L 307.054 191.431 L 304.497 192.966 L 303.474 192.966 L 302.963 194.499 L 300.917 195.521 L 298.361 198.078 L 293.247 199.102 L 293.247 200.124 L 291.713 201.147 L 287.622 200.124 L 287.11 197.056 L 288.644 194.499 L 289.668 193.988 L 291.201 189.897 L 294.782 186.829 L 296.316 183.761 L 299.894 182.738 L 299.894 181.715 L 303.474 180.182 L 304.497 178.136 L 305.52 178.136 L 306.542 175.58 L 311.656 173.023 L 313.189 171.489 L 314.212 171.489 L 314.724 168.932 L 317.28 167.397 L 318.815 167.397 L 319.326 164.33 L 318.303 164.33 L 317.792 161.773 L 320.86 161.773 L 322.394 163.307 L 324.951 162.285 L 326.485 159.216 L 329.553 158.704 L 332.11 155.637 L 336.201 154.102 L 338.758 152.568 L 340.291 150.012 L 342.848 148.478 L 344.382 146.944 L 348.473 146.432 L 350.519 142.341 L 352.564 142.853 L 352.564 141.83 L 356.143 140.808 L 357.677 137.739 L 365.348 134.671 L 367.393 132.115 L 368.927 132.115 L 368.927 131.092 L 373.53 130.07 L 374.04 129.046 L 375.063 129.046 L 375.063 127.512 L 380.178 126.489 L 385.29 124.444 L 388.359 121.888 L 393.983 122.399 L 394.495 120.865 L 398.585 120.865 L 400.631 124.955 L 404.21 125.467 L 406.256 126.489 L 408.812 128.023 L 413.926 133.137 L 415.46 136.718 L 416.994 138.761 L 418.528 143.364 L 419.551 143.364 L 420.062 145.409 L 420.574 150.523 L 419.04 153.591 L 417.505 157.682 L 416.483 157.682 L 416.483 161.262 L 414.949 163.307 L 413.926 165.864 L 412.902 165.864 L 411.88 168.42 L 409.835 169.954 L 406.256 170.466 L 406.256 171.489 L 408.812 171.489 L 409.835 173.023 L 409.324 175.068 L 407.279 175.068 L 407.79 172.511 L 401.654 173.534 L 400.119 174.557 L 399.608 176.602 L 401.654 177.114 L 401.654 178.136 L 399.097 178.136 L 399.097 176.602 L 396.54 177.114 L 391.938 178.648 L 389.892 178.648 L 389.381 180.692 L 387.847 181.204 L 387.847 182.227 L 386.824 182.738 L 381.2 183.249 L 376.086 185.806 L 374.04 187.852 L 368.927 189.386 L 365.348 189.897 L 364.837 191.943 L 366.882 191.431 L 366.371 192.454 L 360.745 192.454 L 360.745 193.476 L 356.143 193.476 L 352.564 193.988 L 352.052 195.521 L 347.451 197.056 L 340.803 198.59 L 339.78 200.124 L 333.644 201.659 L 325.463 204.726 L 323.928 205.75 L 316.258 205.75 L 316.258 207.794 L 325.463 207.794 L 325.463 206.772 L 327.508 207.283 L 329.041 207.283 L 331.087 207.283 L 331.087 205.75 L 333.132 206.261 L 337.223 204.216 L 340.803 203.704 L 344.894 204.216 L 347.961 203.704 L 351.542 204.216 L 351.542 203.193 L 357.166 202.169 L 364.325 202.169 L 364.325 201.147 L 365.348 200.635 L 379.666 200.124 L 390.404 199.102 L 393.472 198.59 L 403.699 199.102 L 418.017 199.102 L 419.551 198.59 L 421.085 199.102 L 421.085 200.635 L 422.108 200.635 L 422.108 202.169 L 425.687 202.681 L 425.687 203.704 L 428.755 204.216 L 429.778 207.283 L 432.846 208.306 L 433.869 212.907 L 434.891 212.907 L 434.891 213.931 L 435.914 213.931 L 436.936 216.488 L 436.426 220.578 L 435.914 223.135 L 433.869 223.135 L 433.357 222.112 L 432.335 222.112 L 432.335 223.135 L 426.709 222.623 L 426.198 222.112 L 410.857 222.112 L 409.324 222.623 L 385.802 222.623 L 384.268 222.112 L 353.587 222.112 L 352.564 222.623 L 343.359 222.623 L 340.803 222.112 L 302.963 222.112 L 302.451 222.623 L 299.383 222.623 L 298.872 224.669 L 296.316 225.18 L 295.292 224.669 L 295.292 223.135 L 294.27 223.135 L 292.736 221.6 L 291.201 223.135 L 287.622 223.646 L 287.11 222.112 L 227.284 222.623 L 222.169 223.135 L 219.612 223.135 L 217.567 221.6 L 217.567 213.931 L 218.59 211.373 L 219.612 206.772 L 222.681 205.75 L 222.169 202.681 L 223.193 202.681 L 224.215 200.124 L 225.238 198.59 L 227.284 197.568 L 227.794 195.011 L 229.84 194.499 L 230.862 191.431 L 234.441 191.431 L 242.624 188.363 L 245.179 186.318 L 249.271 185.806 L 256.43 185.806 L 260.009 184.273 L 263.077 185.295 L 266.146 187.852 L 268.191 187.852 L 267.168 185.295 L 266.658 178.648 L 267.68 177.625 L 268.703 168.932 L 267.68 168.42 L 266.658 170.466 L 264.612 179.159 L 262.567 183.761 L 259.498 183.761 L 256.941 181.715 L 256.43 178.136 L 257.453 162.795 L 257.453 155.637 L 256.941 152.057 L 257.453 137.228 L 255.919 136.718 L 255.919 133.649 L 256.941 133.649 L 255.919 125.467 L 255.919 116.774 L 255.408 110.127 L 254.385 108.082 L 253.874 108.592 L 253.874 117.797 L 252.851 120.354 L 252.339 129.046 L 252.851 136.206 L 251.827 149.501 L 251.827 173.023 L 252.851 178.136 L 252.339 182.227 L 249.782 182.738 L 246.714 181.715 L 246.203 178.648 L 245.179 178.136 L 242.624 170.977 L 241.601 166.375 L 238.533 156.148 L 238.022 153.08 L 237.51 147.456 L 235.465 148.99 L 234.441 148.99 L 234.441 146.432 L 236.487 145.921 L 235.976 142.853 L 234.441 138.251 L 235.465 135.694 L 233.419 127.512 L 232.396 125.467 L 232.396 118.308 L 231.374 109.615 L 230.862 106.036 L 230.35 97.853 L 228.306 96.32 L 229.84 96.32 L 228.306 94.787 L 228.306 89.161 L 229.329 87.627 L 229.329 61.548 L 230.35 59.503 L 231.374 59.503 L 231.374 55.412 L 232.907 53.879 L 235.465 48.765 L 234.953 46.208 L 235.976 46.208 L 235.976 45.184 L 236.998 45.184 L 236.487 47.231 L 238.022 45.696 L 245.691 44.162 L 245.691 43.139 L 248.76 42.628 L 248.76 39.56 L 249.271 39.049 Z" style="fill: rgba(0, 0, 0, 0);"/>
  <path d="M 218.59 236.43 L 226.26 237.452 L 238.022 237.452 L 246.203 236.43 L 248.248 240.521 L 251.317 249.214 L 255.408 259.441 L 257.964 265.576 L 262.567 275.805 L 266.658 285.008 L 271.77 296.258 L 274.327 300.86 L 275.861 298.815 L 280.463 288.077 L 286.088 274.782 L 294.782 254.327 L 301.429 236.941 L 310.122 237.452 L 321.883 237.452 L 329.553 236.941 L 330.575 246.146 L 333.644 274.782 L 337.223 304.95 L 341.825 334.609 L 343.87 345.348 L 334.156 344.837 L 316.77 344.837 L 307.565 345.859 L 307.054 344.837 L 305.52 325.405 L 302.451 295.746 L 299.894 278.872 L 298.361 280.917 L 293.759 291.145 L 289.668 299.838 L 285.065 310.576 L 279.441 323.871 L 271.77 343.814 L 271.258 344.837 L 255.919 344.837 L 249.271 328.473 L 243.646 315.689 L 238.022 301.884 L 232.396 289.61 L 228.306 279.895 L 227.284 279.383 L 226.772 284.497 L 224.215 302.906 L 221.146 328.473 L 219.612 345.348 L 215.01 344.837 L 204.783 344.837 L 200.693 345.859 L 201.205 341.258 L 204.272 328.473 L 209.386 302.394 L 212.965 281.94 L 216.033 259.953 L 218.078 236.941 L 218.59 236.43 Z" style="" fill="#999A9E"/>
  <path d="M 360.745 236.43 L 364.837 236.941 L 374.552 237.452 L 388.359 237.452 L 403.699 236.43 L 416.994 236.43 L 430.29 237.964 L 440.004 241.543 L 445.629 245.124 L 449.721 249.725 L 452.788 255.862 L 453.811 259.953 L 453.811 270.691 L 451.766 277.849 L 448.698 282.452 L 444.095 286.543 L 435.914 290.633 L 432.846 291.655 L 430.29 291.655 L 430.8 294.212 L 435.914 302.394 L 438.981 308.019 L 445.629 318.757 L 454.834 333.075 L 458.924 339.212 L 462.505 344.325 L 462.505 345.348 L 451.766 344.837 L 432.846 344.837 L 422.619 345.859 L 417.505 336.143 L 412.392 326.939 L 408.302 318.757 L 402.164 308.019 L 396.54 298.815 L 396.028 298.815 L 396.028 313.132 L 396.54 335.632 L 396.54 345.348 L 387.335 344.837 L 369.949 344.837 L 360.234 345.859 L 360.745 335.12 L 361.257 325.405 L 361.257 268.134 L 360.234 236.941 L 360.745 236.43 Z" style="" fill="#999A9E"/>
  <path d="M 92.286 234.896 L 105.07 235.407 L 116.831 237.452 L 127.569 240.521 L 132.171 242.566 L 131.661 247.681 L 129.104 257.907 L 128.081 264.554 L 127.569 265.066 L 121.944 265.066 L 119.387 258.929 L 115.809 254.327 L 112.74 252.281 L 111.206 251.771 L 111.206 250.747 L 106.604 249.725 L 104.559 249.214 L 93.82 249.214 L 87.685 250.747 L 81.548 254.327 L 77.968 257.907 L 73.878 264.043 L 70.81 273.248 L 69.275 284.497 L 69.275 293.701 L 70.299 304.95 L 72.344 313.132 L 74.901 319.269 L 80.013 325.917 L 85.128 329.496 L 90.752 331.541 L 93.82 332.053 L 103.025 332.053 L 108.649 331.03 L 115.297 328.473 L 120.921 324.894 L 126.035 320.803 L 127.059 319.779 L 129.616 319.779 L 132.171 321.314 L 131.661 325.405 L 127.569 339.723 L 122.456 341.768 L 111.206 344.837 L 101.491 346.37 L 84.104 346.37 L 76.435 345.348 L 69.275 343.303 L 62.628 340.746 L 55.47 336.655 L 48.822 331.541 L 46.777 329.496 L 46.777 328.473 L 45.754 328.473 L 41.151 322.337 L 38.082 317.224 L 35.015 309.553 L 33.482 302.906 L 32.97 299.327 L 32.97 284.497 L 34.504 275.805 L 36.549 270.179 L 40.64 261.998 L 44.732 255.862 L 45.754 255.862 L 45.754 254.838 L 46.777 254.838 L 47.799 252.793 L 53.935 247.169 L 61.606 242.566 L 71.832 238.475 L 79.503 236.43 L 85.639 235.407 L 92.286 234.896 Z" style="" fill="#999A9E"/>
  <path d="M 389.381 125.467 L 396.028 125.467 L 402.164 127.001 L 407.279 130.07 L 409.835 132.115 L 409.835 133.137 L 410.857 133.137 L 414.949 140.296 L 416.483 144.387 L 416.483 154.613 L 413.926 160.75 L 410.346 165.352 L 406.767 168.42 L 401.654 171.489 L 385.29 179.67 L 375.575 183.761 L 358.189 190.409 L 347.451 194.499 L 330.065 200.124 L 313.701 204.726 L 304.497 206.772 L 298.361 207.283 L 296.827 206.261 L 301.939 203.193 L 316.77 195.521 L 328.53 188.875 L 341.313 181.715 L 350.519 176.091 L 361.257 168.932 L 365.859 164.842 L 365.348 163.819 L 357.166 165.864 L 343.87 171.489 L 328.018 178.648 L 321.883 182.227 L 312.167 186.829 L 300.917 192.966 L 292.225 197.568 L 289.668 198.59 L 290.691 195.521 L 294.27 191.431 L 298.872 186.318 L 303.474 182.227 L 304.497 182.227 L 304.497 181.204 L 310.122 176.602 L 318.303 169.954 L 328.53 162.285 L 338.247 155.125 L 347.961 148.478 L 358.189 141.318 L 370.461 134.161 L 385.29 126.489 L 389.381 125.467 Z" style="fill: rgb(255, 255, 255);"/>
  <path d="M 176.659 63.082 L 183.307 63.594 L 189.443 66.151 L 194.557 70.241 L 199.159 76.889 L 209.386 96.32 L 212.965 104.501 L 216.033 112.172 L 218.59 117.797 L 224.727 134.161 L 229.84 148.478 L 234.441 163.307 L 237.51 177.625 L 237.51 183.761 L 235.976 183.249 L 231.885 175.58 L 225.238 163.819 L 219.612 154.102 L 216.545 148.478 L 212.965 142.853 L 206.317 132.115 L 201.205 124.444 L 195.067 116.263 L 193.022 114.217 L 191.488 113.706 L 192.511 118.82 L 197.625 131.092 L 206.317 148.99 L 213.988 163.819 L 226.26 185.295 L 225.749 187.34 L 221.658 184.273 L 216.545 179.67 L 216.033 178.136 L 213.988 177.114 L 204.783 166.886 L 200.182 161.262 L 192 151.035 L 187.398 144.899 L 179.216 134.161 L 172.569 124.444 L 168.478 118.82 L 163.875 111.149 L 157.228 99.388 L 154.16 93.252 L 153.648 90.696 L 153.648 82.513 L 155.183 77.4 L 158.762 71.775 L 163.364 67.685 L 170.524 64.105 L 176.659 63.082 Z" style="fill: rgb(255, 255, 255);"/>
  <path d="M 323.928 64.105 L 334.156 64.105 L 339.78 66.151 L 344.894 69.218 L 348.985 73.309 L 351.542 77.4 L 353.076 82.513 L 353.076 92.23 L 351.03 97.853 L 345.404 108.082 L 340.291 116.774 L 337.735 120.865 L 336.712 120.865 L 335.69 123.422 L 330.065 131.603 L 328.018 134.161 L 323.928 139.784 L 317.792 147.966 L 316.77 149.501 L 315.746 149.501 L 314.724 152.057 L 310.122 157.682 L 307.054 161.773 L 306.031 161.773 L 304.497 164.842 L 303.474 164.842 L 302.451 166.886 L 295.804 174.557 L 292.225 178.136 L 289.668 181.204 L 285.577 184.783 L 281.487 187.852 L 280.463 187.852 L 280.975 185.295 L 286.088 176.602 L 292.225 165.352 L 296.827 157.171 L 300.917 148.99 L 305.008 141.318 L 307.054 136.718 L 311.656 126.489 L 315.235 116.774 L 314.724 114.729 L 310.633 118.308 L 306.542 123.933 L 303.985 127.512 L 303.474 129.046 L 302.451 129.046 L 301.429 131.603 L 297.849 137.228 L 291.201 147.966 L 283.532 161.262 L 277.396 172 L 271.258 183.761 L 269.214 184.783 L 269.725 178.136 L 271.258 169.442 L 274.838 156.659 L 280.975 138.251 L 287.11 121.888 L 293.247 107.059 L 298.872 94.275 L 305.52 81.491 L 310.633 73.309 L 314.724 68.707 L 320.86 65.128 L 323.928 64.105 Z" style="fill: rgb(255, 255, 255);"/>
  <path d="M 109.673 124.955 L 117.854 124.955 L 122.968 126.489 L 132.683 131.603 L 139.842 135.183 L 151.092 142.341 L 159.274 147.966 L 164.387 151.546 L 173.591 158.194 L 182.284 164.33 L 188.421 169.442 L 197.625 176.602 L 205.295 183.249 L 215.522 193.476 L 217.055 196.033 L 217.055 197.568 L 213.988 196.544 L 203.76 190.921 L 197.625 187.852 L 187.909 182.738 L 176.659 177.114 L 162.342 170.466 L 148.535 164.842 L 140.864 162.795 L 142.399 165.352 L 148.023 169.954 L 155.695 175.068 L 166.943 181.715 L 174.614 186.318 L 180.75 189.897 L 186.376 192.966 L 194.557 197.056 L 206.317 203.193 L 210.408 205.75 L 208.363 206.772 L 201.205 205.75 L 187.909 202.681 L 172.569 198.078 L 160.295 193.988 L 144.955 188.363 L 129.104 182.227 L 119.387 178.136 L 109.673 173.023 L 99.445 167.397 L 95.866 164.33 L 94.842 161.773 L 93.82 161.773 L 91.263 156.148 L 90.242 151.546 L 90.242 146.432 L 91.775 140.296 L 95.866 133.137 L 99.957 129.046 L 106.092 125.978 L 109.673 124.955 Z" style="fill: rgb(255, 255, 255);"/>
  <path d="M 251.317 44.162 L 258.475 44.162 L 263.589 45.184 L 270.237 48.765 L 274.327 52.856 L 277.396 58.479 L 278.418 62.06 L 278.418 92.23 L 275.861 114.729 L 272.793 135.694 L 269.725 152.568 L 266.658 165.352 L 263.589 175.068 L 261.543 179.67 L 260.52 181.204 L 259.498 181.204 L 258.986 135.694 L 257.964 116.774 L 256.43 103.479 L 254.896 98.365 L 253.874 97.853 L 251.827 109.104 L 250.805 120.865 L 249.782 147.966 L 249.782 178.136 L 248.76 179.159 L 248.76 178.136 L 247.737 178.136 L 244.157 167.909 L 240.067 150.523 L 235.976 126.489 L 233.419 107.57 L 231.885 92.23 L 231.374 85.581 L 231.374 64.617 L 232.907 58.479 L 234.953 54.389 L 238.022 50.298 L 243.134 46.719 L 248.248 44.674 L 251.317 44.162 Z" style="fill: rgb(255, 255, 255);"/>
  <path d="M 117.854 121.377 L 120.411 121.888 L 122.456 123.422 L 125.013 123.422 L 125.524 125.467 L 128.081 127.001 L 131.661 128.023 L 136.774 131.603 L 139.842 133.137 L 140.864 133.137 L 141.376 134.161 L 148.023 136.718 L 150.58 138.251 L 153.137 141.318 L 158.251 142.853 L 159.785 145.921 L 161.318 147.456 L 167.455 150.523 L 170.012 152.057 L 172.569 154.102 L 173.081 156.659 L 176.659 157.171 L 176.659 158.194 L 181.773 158.704 L 184.329 159.728 L 185.353 161.262 L 184.841 165.352 L 187.909 166.375 L 189.954 166.375 L 192 167.909 L 193.022 170.466 L 200.693 174.557 L 202.226 177.625 L 205.295 178.136 L 205.807 180.182 L 209.897 184.273 L 210.408 185.806 L 214.5 188.875 L 217.055 190.921 L 218.59 193.988 L 220.636 195.521 L 220.636 196.544 L 221.658 196.544 L 222.169 199.613 L 219.612 200.635 L 213.988 199.102 L 208.874 197.056 L 207.852 195.011 L 205.807 194.499 L 204.272 195.521 L 201.205 191.943 L 199.159 190.921 L 195.067 189.897 L 192.511 187.852 L 192.511 186.829 L 187.398 187.852 L 186.886 186.318 L 189.954 185.806 L 186.376 184.273 L 183.819 182.738 L 181.262 183.249 L 180.75 185.295 L 179.728 185.806 L 181.773 187.852 L 184.329 188.875 L 186.376 190.921 L 191.488 191.943 L 194.045 192.966 L 195.579 195.011 L 197.114 195.521 L 197.625 193.988 L 199.159 194.499 L 200.182 195.521 L 200.693 198.078 L 201.715 198.59 L 201.715 199.613 L 206.317 199.102 L 209.386 201.659 L 212.965 202.681 L 212.965 201.659 L 214.5 202.169 L 212.965 206.261 L 212.455 207.283 L 210.92 208.306 L 211.431 210.351 L 208.363 210.862 L 208.363 209.328 L 205.295 208.306 L 198.136 208.816 L 197.625 206.772 L 189.954 206.261 L 187.398 206.261 L 187.398 205.238 L 186.376 205.238 L 185.864 203.193 L 178.705 203.704 L 176.659 204.216 L 177.171 207.283 L 181.262 207.283 L 192 208.816 L 197.114 210.862 L 197.114 211.885 L 201.205 211.373 L 201.205 212.397 L 203.249 212.907 L 204.272 211.885 L 205.295 213.419 L 209.386 213.419 L 211.943 214.954 L 213.477 216.999 L 213.477 219.045 L 212.455 219.045 L 212.455 220.067 L 213.477 220.578 L 212.455 223.135 L 207.852 223.135 L 198.648 222.112 L 161.318 222.112 L 159.785 222.623 L 156.205 222.623 L 154.671 222.112 L 131.661 222.112 L 131.15 222.623 L 99.445 222.623 L 97.4 222.112 L 74.901 222.112 L 74.39 223.135 L 71.832 223.135 L 70.299 221.6 L 70.81 217.51 L 71.832 212.907 L 73.878 209.84 L 75.412 206.772 L 76.435 206.772 L 77.457 204.726 L 78.991 203.704 L 80.013 201.147 L 86.662 199.613 L 90.242 198.59 L 112.74 198.078 L 115.809 197.568 L 116.321 198.59 L 134.728 200.124 L 139.331 200.124 L 141.888 199.613 L 144.445 201.147 L 144.445 202.169 L 155.183 202.681 L 160.295 203.704 L 163.875 204.216 L 163.875 203.193 L 168.478 203.193 L 171.035 204.216 L 171.546 200.635 L 169.5 200.635 L 168.478 201.147 L 167.966 199.102 L 164.387 198.078 L 161.318 198.078 L 161.318 197.056 L 158.762 196.033 L 158.251 195.011 L 154.16 194.499 L 152.626 194.499 L 152.114 193.988 L 150.069 194.499 L 150.58 192.454 L 149.557 192.454 L 149.557 191.431 L 146.49 192.454 L 143.933 189.897 L 139.331 188.363 L 137.285 188.875 L 136.262 187.852 L 132.683 186.829 L 131.661 187.34 L 131.661 184.783 L 128.593 184.783 L 128.081 186.318 L 125.524 185.806 L 127.569 184.783 L 128.081 182.738 L 123.478 182.738 L 119.387 180.182 L 116.831 180.182 L 115.809 180.692 L 114.275 177.625 L 112.23 177.114 L 109.161 175.068 L 108.138 174.045 L 103.025 173.023 L 98.934 169.954 L 96.377 168.42 L 94.842 167.909 L 93.309 165.352 L 91.263 162.795 L 89.73 158.194 L 88.707 157.682 L 88.707 153.591 L 87.685 153.591 L 88.196 142.341 L 90.752 137.228 L 91.775 134.161 L 93.82 131.603 L 94.842 131.603 L 95.354 129.046 L 94.842 127.512 L 95.866 126.489 L 100.468 126.489 L 103.537 125.467 L 105.582 122.399 L 117.854 122.399 L 117.854 121.377 Z M 109.673 124.955 L 103.537 127.001 L 98.934 130.07 L 95.354 133.649 L 91.263 141.318 L 90.242 146.432 L 90.242 151.546 L 91.775 157.682 L 93.82 161.773 L 94.842 161.773 L 95.866 164.33 L 100.98 168.42 L 112.74 174.557 L 120.921 178.648 L 134.216 184.273 L 141.888 187.34 L 152.114 190.921 L 164.387 195.521 L 180.75 200.635 L 194.045 204.216 L 203.249 206.261 L 208.874 206.772 L 210.408 205.75 L 205.295 202.681 L 190.466 195.011 L 182.284 190.409 L 171.035 184.273 L 160.807 178.136 L 152.626 173.023 L 145.467 167.909 L 141.376 164.33 L 140.864 162.795 L 148.535 164.842 L 159.785 169.442 L 172.057 175.068 L 188.931 183.249 L 201.715 189.897 L 212.965 196.033 L 216.033 197.568 L 217.055 197.568 L 216.545 195.011 L 211.943 189.897 L 203.249 181.204 L 192 172 L 185.353 166.886 L 180.238 162.795 L 171.546 156.659 L 164.387 151.546 L 154.16 144.387 L 145.467 138.761 L 137.797 134.161 L 122.968 126.489 L 117.854 124.955 L 109.673 124.955 Z" style="fill: rgba(0, 0, 0, 0);"/>
  <path d="M 149.557 236.43 L 162.342 237.452 L 174.102 237.452 L 181.262 236.941 L 186.376 236.941 L 186.376 243.589 L 185.353 265.066 L 185.353 319.269 L 186.376 345.859 L 178.193 344.837 L 159.274 344.837 L 149.557 345.859 L 149.557 336.655 L 150.069 325.405 L 150.069 250.747 L 149.557 236.43 Z" style="" fill="#999A9E"/>
  <path d="M 90.752 200.635 L 117.343 200.635 L 142.399 203.193 L 166.943 206.772 L 185.353 210.351 L 199.67 213.931 L 207.34 216.999 L 209.897 219.045 L 207.852 219.555 L 164.387 220.067 L 72.856 220.067 L 72.344 219.045 L 73.878 213.931 L 77.457 208.306 L 82.059 204.216 L 87.173 201.659 L 90.752 200.635 Z" style="fill: rgb(255, 255, 255);"/>
  <path d="M 390.916 201.147 L 415.46 201.147 L 422.108 203.193 L 426.709 206.261 L 430.29 209.84 L 432.846 213.931 L 434.381 218.533 L 434.381 220.067 L 297.339 220.067 L 297.849 218.533 L 301.939 216.488 L 313.189 212.907 L 332.11 208.816 L 354.097 205.238 L 379.154 202.169 L 390.916 201.147 Z" style="fill: rgb(255, 255, 255);"/>
  <path d="M 248.76 188.875 L 260.52 188.875 L 267.68 190.921 L 273.815 193.988 L 279.441 198.59 L 284.043 204.216 L 287.622 211.373 L 289.156 216.999 L 289.156 219.555 L 288.644 220.067 L 221.146 220.067 L 220.636 219.555 L 220.636 214.954 L 223.193 208.306 L 226.772 202.169 L 229.84 198.59 L 235.976 193.988 L 239.044 191.943 L 246.203 189.386 L 248.76 188.875 Z" style="" fill="#F2B12B"/>
  <path d="M 171.546 61.037 L 180.238 61.037 L 186.376 61.548 L 190.466 63.594 L 194.045 68.196 L 196.091 68.707 L 197.625 71.263 L 199.67 71.263 L 201.715 76.889 L 202.226 79.446 L 204.783 81.491 L 206.317 84.558 L 207.852 86.604 L 209.386 90.696 L 211.431 94.275 L 212.455 96.831 L 212.455 99.899 L 213.477 99.899 L 215.01 101.944 L 216.033 106.547 L 217.055 108.082 L 217.055 109.615 L 219.101 110.637 L 219.612 112.682 L 221.146 112.682 L 221.658 115.24 L 220.636 116.263 L 222.681 122.911 L 225.238 124.955 L 225.749 129.046 L 226.26 132.115 L 228.306 137.228 L 229.329 138.251 L 229.84 142.853 L 230.862 142.853 L 232.907 147.966 L 233.931 154.102 L 235.976 158.704 L 236.998 166.375 L 238.533 167.397 L 237.51 173.534 L 240.067 174.045 L 241.089 176.091 L 240.579 182.227 L 240.579 186.829 L 239.044 188.363 L 235.976 187.852 L 233.931 186.829 L 232.396 182.227 L 230.862 178.136 L 228.306 179.159 L 227.284 181.204 L 228.306 184.783 L 229.84 184.273 L 230.35 187.34 L 229.329 190.409 L 228.817 190.921 L 223.703 190.409 L 223.703 189.386 L 222.169 189.386 L 221.658 186.318 L 215.01 186.829 L 213.477 185.295 L 213.988 184.273 L 216.545 184.783 L 216.033 182.227 L 213.988 180.182 L 213.477 178.648 L 210.408 178.648 L 209.386 179.159 L 209.386 174.045 L 204.783 174.045 L 203.76 172 L 205.295 171.489 L 205.295 169.442 L 202.226 169.954 L 202.738 168.932 L 201.205 165.352 L 199.159 163.819 L 198.648 162.285 L 197.114 161.773 L 195.579 158.194 L 193.022 157.682 L 191.488 154.102 L 188.931 154.102 L 188.931 153.08 L 186.376 153.591 L 186.376 151.035 L 188.421 150.523 L 187.909 148.478 L 185.864 147.456 L 185.864 145.921 L 184.841 145.409 L 183.819 143.364 L 182.284 141.83 L 180.75 139.784 L 179.216 141.318 L 178.193 138.761 L 179.216 138.251 L 178.705 136.718 L 177.681 136.718 L 177.681 134.161 L 176.659 134.161 L 176.147 133.137 L 173.591 132.626 L 167.966 121.377 L 166.943 120.865 L 165.409 117.285 L 163.364 116.774 L 161.83 112.172 L 158.251 112.682 L 157.74 110.637 L 158.251 108.592 L 157.228 103.479 L 157.228 101.944 L 155.695 101.434 L 155.183 99.388 L 154.16 99.388 L 153.137 94.275 L 151.603 93.763 L 151.092 92.741 L 151.092 82.513 L 152.626 77.911 L 155.695 73.309 L 156.205 70.752 L 157.228 70.752 L 157.74 68.196 L 160.295 65.639 L 164.387 65.128 L 166.943 62.57 L 167.455 61.548 L 171.546 61.037 Z M 176.659 63.082 L 170.524 64.105 L 163.364 67.685 L 158.762 71.775 L 155.183 77.4 L 153.648 82.513 L 153.648 90.696 L 155.183 95.809 L 161.83 107.57 L 167.455 117.285 L 175.636 129.046 L 182.796 138.761 L 187.909 145.409 L 192.511 151.546 L 196.602 156.659 L 201.205 162.285 L 206.829 168.932 L 212.455 175.068 L 215.01 178.136 L 216.033 178.136 L 217.055 180.182 L 222.681 185.295 L 225.749 187.34 L 226.26 185.295 L 219.612 173.534 L 212.455 160.75 L 203.76 143.875 L 196.602 129.046 L 192 117.285 L 191.488 113.706 L 194.045 115.24 L 197.114 118.82 L 201.205 124.444 L 206.317 132.115 L 212.965 142.853 L 218.59 152.057 L 225.238 163.819 L 232.907 177.625 L 236.487 183.761 L 237.51 183.761 L 237.51 177.625 L 234.441 163.307 L 230.862 152.057 L 226.26 138.251 L 218.078 116.774 L 213.988 107.059 L 210.92 100.41 L 208.874 95.297 L 202.226 82.513 L 197.625 74.332 L 193.534 69.218 L 189.443 66.151 L 183.307 63.594 L 176.659 63.082 Z" style="fill: rgba(0, 0, 0, 0);"/>
  <path d="M 396.028 248.702 L 406.256 248.702 L 411.369 250.236 L 415.971 254.327 L 418.017 258.419 L 419.04 263.531 L 419.04 272.225 L 416.483 280.405 L 413.414 283.986 L 409.835 286.031 L 405.745 287.054 L 396.028 287.054 L 395.517 286.031 L 395.517 249.214 L 396.028 248.702 Z" style="fill: rgb(255, 255, 255);"/>
  <path d="M 215.01 369.382 L 223.193 369.382 L 227.284 371.427 L 228.306 374.494 L 228.306 383.188 L 226.772 386.768 L 223.703 388.301 L 215.01 388.301 L 215.01 369.382 Z" style="" fill="#999A9E"/>
  <path d="M 366.371 369.382 L 375.063 369.382 L 378.131 371.427 L 379.154 373.472 L 379.154 376.539 L 376.597 379.608 L 375.575 379.608 L 379.154 386.768 L 379.154 388.301 L 376.597 388.301 L 372.506 380.63 L 368.927 380.63 L 368.416 388.301 L 365.859 388.301 L 365.859 369.892 L 366.371 369.382 Z" style="" fill="#999A9E"/>
  <path d="M 410.857 369.382 L 419.551 369.382 L 422.619 371.427 L 423.642 372.961 L 423.642 376.539 L 421.085 379.608 L 420.062 379.608 L 423.642 386.768 L 423.642 388.301 L 421.085 388.301 L 416.994 380.63 L 413.414 380.63 L 412.902 388.301 L 410.346 388.301 L 410.346 370.916 L 410.857 369.382 Z" style="" fill="#999A9E"/>
  <path d="M 75.923 369.382 L 84.616 369.382 L 87.685 371.427 L 88.707 373.472 L 88.196 377.563 L 86.662 379.097 L 85.639 379.608 L 86.15 382.165 L 88.707 387.278 L 88.707 388.301 L 86.15 388.301 L 82.059 380.63 L 78.48 380.63 L 77.968 388.301 L 75.412 388.301 L 75.412 369.892 L 75.923 369.382 Z" style="" fill="#999A9E"/>
  <path d="M 128.081 369.382 L 136.774 369.382 L 139.331 370.404 L 140.864 372.449 L 140.864 377.051 L 138.308 379.608 L 138.819 382.677 L 141.376 387.278 L 141.376 388.301 L 138.308 388.301 L 134.728 380.63 L 130.638 380.12 L 130.638 388.301 L 128.081 388.301 L 128.081 369.382 Z" style="" fill="#999A9E"/>
  <path d="M 209.386 140.808 L 211.943 142.853 L 212.455 145.921 L 212.455 148.99 L 213.988 151.546 L 213.988 153.08 L 217.055 154.102 L 218.078 155.125 L 218.078 156.659 L 219.612 156.659 L 222.169 161.773 L 222.681 164.842 L 223.703 164.842 L 226.772 169.954 L 228.817 174.557 L 227.284 177.114 L 226.772 180.182 L 224.215 179.67 L 223.703 178.648 L 223.703 175.58 L 224.727 173.534 L 225.238 170.466 L 223.703 169.954 L 223.193 173.534 L 221.146 173.023 L 219.612 169.954 L 220.124 166.886 L 221.658 164.33 L 219.612 164.33 L 219.612 166.375 L 217.567 166.886 L 216.545 165.352 L 217.055 163.307 L 218.078 161.773 L 216.545 158.194 L 213.988 159.216 L 211.943 157.171 L 208.363 149.501 L 207.852 145.921 L 208.363 142.341 L 209.386 142.341 L 209.386 140.808 Z" style="fill: rgba(254, 254, 254, 0);"/>
  <path d="M 392.45 369.382 L 401.654 369.382 L 403.699 370.404 L 405.233 372.961 L 405.233 377.563 L 402.676 380.12 L 401.654 380.63 L 395.006 380.63 L 395.006 388.301 L 392.45 388.301 L 392.45 369.382 Z" style="" fill="#999A9E"/>
  <path d="M 54.958 369.382 L 57.003 369.892 L 59.561 376.539 L 63.139 386.768 L 63.651 388.301 L 61.094 388.301 L 60.071 386.768 L 60.071 384.722 L 51.889 384.722 L 50.355 388.301 L 47.799 388.301 L 48.311 386.256 L 51.378 377.563 L 54.446 369.892 L 54.958 369.382 Z" style="" fill="#999A9E"/>
  <path d="M 151.603 369.382 L 153.648 369.892 L 156.205 376.029 L 160.295 386.768 L 160.295 388.301 L 157.74 388.301 L 156.717 386.256 L 156.717 384.211 L 149.046 384.722 L 147.001 388.301 L 144.955 388.301 L 145.467 385.233 L 151.092 369.892 L 151.603 369.382 Z" style="" fill="#999A9E"/>
  <path d="M 217.567 371.427 L 222.681 371.427 L 224.727 372.449 L 225.749 374.494 L 225.749 383.188 L 223.703 385.745 L 222.681 386.256 L 217.567 386.256 L 217.567 371.427 Z" style="" fill="#FDFDFD"/>
  <path d="M 329.553 369.382 L 341.313 369.382 L 341.313 371.427 L 332.11 371.939 L 332.11 377.051 L 339.78 377.563 L 339.78 379.608 L 332.621 380.12 L 332.11 380.63 L 331.599 386.256 L 340.803 386.256 L 341.313 388.301 L 329.553 388.301 L 329.041 387.789 L 329.041 369.892 L 329.553 369.382 Z" style="" fill="#999A9E"/>
  <path d="M 278.418 369.382 L 289.668 369.382 L 290.179 371.427 L 280.975 371.939 L 280.975 377.051 L 288.134 377.563 L 288.644 379.608 L 280.975 380.12 L 280.975 385.745 L 290.179 386.256 L 289.668 388.301 L 278.418 388.301 L 277.906 387.789 L 277.906 369.892 L 278.418 369.382 Z" style="" fill="#999A9E"/>
  <path d="M 190.466 369.382 L 201.715 369.382 L 202.226 371.427 L 193.022 371.939 L 193.022 377.051 L 194.045 377.563 L 200.182 377.563 L 200.693 379.608 L 192.511 380.12 L 193.022 385.745 L 201.715 386.256 L 201.715 388.301 L 189.954 388.301 L 189.954 369.892 L 190.466 369.382 Z" style="" fill="#999A9E"/>
  <path d="M 94.332 369.382 L 106.092 369.382 L 106.092 371.427 L 97.4 371.939 L 96.889 377.563 L 104.559 377.563 L 105.07 379.608 L 97.4 380.12 L 97.4 385.745 L 106.092 386.256 L 106.092 388.301 L 94.332 388.301 L 94.332 369.382 Z" style="" fill="#999A9E"/>
  <path d="M 233.931 369.382 L 236.487 369.892 L 236.998 383.699 L 239.044 385.745 L 242.113 385.745 L 244.157 384.211 L 244.669 369.892 L 247.226 369.382 L 247.226 384.211 L 245.691 386.768 L 243.134 388.301 L 238.533 388.301 L 235.465 386.768 L 233.931 384.211 L 233.931 369.382 Z" style="" fill="#999A9E"/>
  <path d="M 346.428 369.382 L 348.985 369.892 L 349.496 384.211 L 351.542 385.745 L 354.609 385.745 L 356.654 384.211 L 357.166 379.608 L 357.677 369.382 L 359.723 369.382 L 360.234 374.494 L 360.234 382.677 L 358.7 386.256 L 355.632 388.301 L 350.519 388.301 L 347.961 386.768 L 346.428 384.211 L 346.428 369.382 Z" style="" fill="#999A9E"/>
  <path d="M 454.834 369.382 L 466.083 369.382 L 466.595 371.427 L 457.391 371.427 L 457.391 377.563 L 465.061 377.563 L 465.061 379.608 L 457.902 380.12 L 457.391 382.677 L 457.391 385.745 L 466.595 386.256 L 466.595 388.301 L 454.834 388.301 L 454.834 369.382 Z" style="" fill="#999A9E"/>
  <path d="M 264.1 369.382 L 268.703 369.382 L 271.258 370.404 L 270.748 372.449 L 268.191 371.939 L 264.1 371.939 L 263.077 372.449 L 262.567 375.006 L 263.077 376.539 L 270.748 378.585 L 272.281 380.12 L 272.793 382.677 L 271.77 386.256 L 268.703 388.301 L 262.567 388.301 L 259.498 386.768 L 260.52 384.722 L 263.077 385.745 L 269.214 385.745 L 269.725 381.654 L 268.703 380.63 L 262.055 379.097 L 260.009 377.051 L 260.009 372.449 L 262.567 369.892 L 264.1 369.382 Z" style="" fill="#999A9E"/>
  <path d="M 299.383 369.382 L 303.474 369.382 L 306.031 370.916 L 308.077 373.472 L 307.565 375.006 L 305.008 374.494 L 303.985 372.449 L 302.963 371.939 L 299.894 371.939 L 297.849 373.984 L 297.849 383.188 L 298.872 385.233 L 299.894 385.745 L 302.963 385.745 L 305.52 383.188 L 307.565 382.677 L 308.077 383.699 L 306.542 386.768 L 303.474 388.301 L 298.872 388.301 L 296.316 386.768 L 294.782 383.699 L 294.782 373.984 L 296.827 370.916 L 299.383 369.382 Z" style="" fill="#999A9E"/>
  <path d="M 303.985 132.626 L 305.52 133.137 L 305.008 136.718 L 303.985 137.739 L 303.474 141.318 L 300.917 142.853 L 299.894 147.456 L 296.827 151.546 L 294.782 152.057 L 293.247 155.125 L 290.691 154.613 L 290.691 152.568 L 292.736 148.99 L 294.27 146.432 L 296.316 146.944 L 296.316 142.853 L 298.361 142.341 L 298.872 139.784 L 301.939 134.671 L 303.474 134.161 L 303.985 132.626 Z" style="fill: rgba(254, 254, 254, 0);"/>
  <path d="M 436.426 369.382 L 438.981 369.892 L 442.562 381.142 L 442.562 382.677 L 443.584 382.165 L 447.676 369.892 L 450.232 369.382 L 449.721 372.961 L 446.653 381.142 L 444.607 387.789 L 442.562 388.301 L 441.028 385.745 L 436.426 371.427 L 436.426 369.382 Z" style="" fill="#999A9E"/>
  <path d="M 110.183 369.382 L 122.968 369.382 L 122.968 371.427 L 118.366 371.939 L 117.854 388.301 L 115.297 388.301 L 114.786 371.939 L 110.183 371.427 L 109.673 370.404 L 110.183 369.382 Z" style="" fill="#999A9E"/>
  <path d="M 172.569 369.382 L 184.841 369.382 L 185.353 371.427 L 184.329 371.939 L 180.238 371.427 L 179.728 388.301 L 177.171 387.789 L 177.171 371.427 L 172.057 371.427 L 172.569 369.382 Z" style="" fill="#999A9E"/>
  <path d="M 33.482 369.382 L 36.037 369.892 L 36.549 385.745 L 45.242 386.256 L 45.242 388.301 L 33.482 388.301 L 33.482 369.382 Z" style="" fill="#999A9E"/>
  <path d="M 267.68 167.909 L 269.214 168.932 L 268.191 177.625 L 267.168 179.67 L 267.68 185.295 L 268.703 187.852 L 267.68 188.875 L 264.612 187.34 L 264.612 186.318 L 262.055 185.295 L 260.009 183.761 L 262.055 183.249 L 264.1 179.159 L 266.146 170.466 L 267.68 167.909 Z" style="fill: rgba(254, 254, 254, 0);"/>
  <path d="M 311.656 369.382 L 324.44 369.382 L 324.44 371.427 L 319.326 371.939 L 319.326 379.097 L 318.815 388.301 L 316.77 388.301 L 316.258 371.939 L 311.656 371.427 L 311.656 369.382 Z" style="" fill="#999A9E"/>
  <path d="M 221.658 164.842 L 223.703 164.842 L 226.772 169.954 L 228.817 174.557 L 227.284 177.114 L 226.772 180.182 L 224.215 179.67 L 223.703 178.648 L 223.703 175.58 L 224.727 173.534 L 225.238 170.466 L 223.703 169.954 L 223.193 173.534 L 221.146 173.023 L 219.612 169.954 L 220.124 166.886 L 221.658 164.842 Z" style="fill: rgba(254, 254, 254, 0);"/>
  <path d="M 395.517 371.427 L 400.631 371.427 L 402.676 372.961 L 403.188 376.029 L 400.631 378.585 L 395.006 378.585 L 395.006 371.939 L 395.517 371.427 Z" style="" fill="#FDFDFC"/>
  <path d="M 413.414 371.427 L 419.04 371.427 L 421.085 373.472 L 421.085 376.539 L 419.551 378.074 L 413.414 378.074 L 412.902 377.563 L 412.902 371.939 L 413.414 371.427 Z" style="" fill="#FDFDFB"/>
  <path d="M 78.48 371.427 L 83.594 371.427 L 85.639 372.449 L 86.15 373.472 L 86.15 376.539 L 84.616 378.074 L 78.48 378.074 L 77.968 377.563 L 77.968 371.939 L 78.48 371.427 Z" style="" fill="#FDFDFB"/>
  <path d="M 368.927 371.427 L 373.018 371.427 L 376.086 372.449 L 376.597 376.029 L 374.552 378.074 L 368.927 378.074 L 368.416 377.563 L 368.416 371.939 L 368.927 371.427 Z" style="" fill="#FDFDFB"/>
  <path d="M 164.898 369.382 L 167.455 369.382 L 167.455 388.301 L 164.898 388.301 L 164.898 369.382 Z" style="" fill="#999A9E"/>
  <path d="M 429.778 369.382 L 431.824 369.892 L 431.824 388.301 L 429.266 388.301 L 429.266 369.892 L 429.778 369.382 Z" style="" fill="#999A9E"/>
  <path d="M 131.15 371.427 L 136.262 371.427 L 138.308 372.961 L 138.308 376.539 L 136.774 378.074 L 130.638 378.074 L 130.638 371.939 L 131.15 371.427 Z" style="" fill="#FDFDFC"/>
  <path d="M 151.603 168.42 L 154.671 168.932 L 155.183 170.466 L 157.228 170.977 L 162.852 173.023 L 167.455 174.557 L 166.943 176.602 L 163.875 177.625 L 160.295 175.58 L 159.274 174.557 L 156.205 173.534 L 155.695 172 L 154.16 172 L 151.603 170.466 L 151.603 168.42 Z" style="fill: rgba(254, 254, 254, 0);"/>
  <path d="M 199.67 126.489 L 201.205 127.001 L 203.249 132.115 L 205.295 134.161 L 206.317 135.694 L 206.317 138.761 L 207.34 139.784 L 207.34 141.318 L 204.783 142.341 L 203.249 138.761 L 203.249 137.228 L 202.226 137.228 L 199.67 131.092 L 199.159 127.001 L 199.67 126.489 Z" style="fill: rgba(254, 254, 254, 0);"/>
  <path d="M 329.553 223.135 L 352.052 223.135 L 352.052 224.157 L 349.496 224.669 L 345.404 224.157 L 345.404 225.18 L 342.848 225.692 L 337.223 225.692 L 328.53 225.18 L 328.53 223.646 L 329.553 223.135 Z" style="fill: rgba(254, 254, 254, 0);"/>
  <path d="M 262.567 224.157 L 286.088 224.157 L 285.577 225.692 L 263.589 225.692 L 262.567 225.18 L 262.567 224.157 Z" style="fill: rgba(254, 254, 254, 0);"/>
  <path d="M 152.114 373.472 L 153.648 375.006 L 155.695 380.63 L 155.695 382.165 L 154.16 382.677 L 150.069 382.677 L 149.557 380.63 L 152.114 373.472 Z" style="" fill="#FDFDFC"/>
  <path d="M 385.29 223.135 L 408.302 223.135 L 409.324 224.157 L 408.812 224.669 L 387.335 224.669 L 385.29 224.157 L 385.29 223.135 Z" style="fill: rgba(254, 254, 254, 0);"/>
  <path d="M 55.47 373.984 L 56.492 374.494 L 58.537 380.63 L 58.026 382.677 L 52.912 382.165 L 53.423 378.585 L 55.47 373.984 Z" style="" fill="#FDFDFC"/>
  <path d="M 396.028 248.702 L 397.563 248.702 L 397.563 249.725 L 396.54 249.725 L 396.028 286.031 L 395.517 286.031 L 395.517 249.214 L 396.028 248.702 Z" style="" fill="#FCFDF5"/>
  <path d="M 303.474 208.306 L 308.077 208.816 L 310.633 209.328 L 313.701 210.351 L 311.656 212.397 L 307.565 212.397 L 305.008 210.351 L 305.008 209.328 L 303.474 209.328 L 303.474 208.306 Z" style="fill: rgba(254, 254, 254, 0);"/>
  <path d="M 311.656 371.427 L 316.258 371.427 L 316.77 371.939 L 316.77 388.301 L 315.746 387.789 L 315.746 372.449 L 310.633 372.449 L 311.656 371.427 Z" style="" fill="#FCFDF5"/>
  <path d="M 170.524 176.602 L 172.569 176.602 L 172.569 177.625 L 174.614 178.136 L 174.102 179.67 L 172.569 179.67 L 172.057 181.204 L 170.012 181.715 L 168.478 180.692 L 168.478 179.67 L 169.5 179.159 L 170.524 176.602 Z" style="fill: rgba(254, 254, 254, 0);"/>
  <path d="M 270.748 156.148 L 272.793 156.659 L 271.77 161.773 L 271.258 162.795 L 269.214 162.795 L 269.725 157.682 L 270.748 156.148 Z" style="fill: rgba(174, 0, 0, 0);"/>
  <path d="M 177.681 180.182 L 179.728 181.204 L 177.171 183.761 L 175.125 184.273 L 174.102 183.761 L 174.102 182.227 L 176.659 180.692 L 177.681 181.204 L 177.681 180.182 Z" style="fill: rgba(254, 254, 254, 0);"/>
  <path d="M 307.565 126.489 L 308.588 127.001 L 308.077 131.092 L 306.031 131.603 L 305.52 129.046 L 306.031 127.512 L 307.565 126.489 Z" style="fill: rgba(254, 254, 254, 0);"/>
  <path d="M 212.965 88.139 L 215.01 88.65 L 214.5 90.696 L 216.033 95.297 L 212.965 93.252 L 212.455 90.696 L 212.965 88.139 Z" style="fill: rgba(254, 254, 254, 0);"/>
  <path d="M 233.419 223.135 L 236.998 223.135 L 238.022 225.18 L 232.396 225.18 L 231.885 224.157 L 233.419 223.135 Z" style="fill: rgba(254, 254, 254, 0);"/>
  <path d="M 253.874 166.886 L 254.896 166.886 L 256.43 172.511 L 255.919 174.045 L 253.874 171.489 L 253.874 166.886 Z" style="fill: rgba(254, 254, 254, 0);"/>
  <path d="M 409.835 169.442 L 410.346 169.442 L 410.346 174.045 L 408.812 172.511 L 408.812 171.489 L 406.256 171.489 L 406.256 170.466 L 409.835 169.442 Z" style="fill: rgba(254, 254, 254, 0);"/>
  <path d="M 372.506 127.001 L 373.53 129.046 L 371.483 129.046 L 369.949 129.046 L 369.438 130.58 L 367.393 131.092 L 368.416 128.023 L 372.506 127.001 Z" style="fill: rgba(254, 254, 254, 0);"/>
  <path d="M 460.97 363.244 L 463.015 363.244 L 461.993 365.801 L 459.948 367.336 L 459.436 366.313 L 460.97 363.244 Z" style="" fill="#999A9E"/>
  <path d="M 357.677 92.23 L 359.211 93.252 L 358.7 96.831 L 357.677 96.831 L 357.166 93.252 L 357.677 92.23 Z" style="fill: rgba(254, 254, 254, 0);"/>
</svg>